<svg width="280" height="21" viewBox="0 0 280 21" fill="none" xmlns="http://www.w3.org/2000/svg">
<g opacity="0.5">
<path d="M257.75 15H256.476L251.352 7.23V15H250.078V5.228H251.352L256.476 12.984V5.228H257.75V15ZM266.922 10.87C266.922 11.1127 266.908 11.3693 266.88 11.64H260.748C260.794 12.396 261.051 12.9887 261.518 13.418C261.994 13.838 262.568 14.048 263.24 14.048C263.79 14.048 264.248 13.922 264.612 13.67C264.985 13.4087 265.246 13.0633 265.396 12.634H266.768C266.562 13.3713 266.152 13.9733 265.536 14.44C264.92 14.8973 264.154 15.126 263.24 15.126C262.512 15.126 261.858 14.9627 261.28 14.636C260.71 14.3093 260.262 13.8473 259.936 13.25C259.609 12.6433 259.446 11.9433 259.446 11.15C259.446 10.3567 259.604 9.66133 259.922 9.064C260.239 8.46667 260.682 8.00933 261.252 7.692C261.83 7.36533 262.493 7.202 263.24 7.202C263.968 7.202 264.612 7.36067 265.172 7.678C265.732 7.99533 266.161 8.434 266.46 8.994C266.768 9.54467 266.922 10.17 266.922 10.87ZM265.606 10.604C265.606 10.1187 265.498 9.70333 265.284 9.358C265.069 9.00333 264.775 8.73733 264.402 8.56C264.038 8.37333 263.632 8.28 263.184 8.28C262.54 8.28 261.989 8.48533 261.532 8.896C261.084 9.30667 260.827 9.876 260.762 10.604H265.606ZM272.607 15L270.787 12.144L269.037 15H267.707L270.185 11.192L267.707 7.328H269.149L270.969 10.17L272.705 7.328H274.035L271.571 11.122L274.049 15H272.607ZM276.857 8.378V12.9C276.857 13.2733 276.936 13.5393 277.095 13.698C277.253 13.8473 277.529 13.922 277.921 13.922H278.859V15H277.711C277.001 15 276.469 14.8367 276.115 14.51C275.76 14.1833 275.583 13.6467 275.583 12.9V8.378H274.589V7.328H275.583V5.396H276.857V7.328H278.859V8.378H276.857Z" fill="#DFF2EF"/>
<path d="M7.602 8.098C7.602 8.91 7.322 9.58667 6.762 10.128C6.21133 10.66 5.36667 10.926 4.228 10.926H2.352V15H1.078V5.242H4.228C5.32933 5.242 6.16467 5.508 6.734 6.04C7.31267 6.572 7.602 7.258 7.602 8.098ZM4.228 9.876C4.93733 9.876 5.46 9.722 5.796 9.414C6.132 9.106 6.3 8.66733 6.3 8.098C6.3 6.894 5.60933 6.292 4.228 6.292H2.352V9.876H4.228ZM10.4594 8.574C10.6834 8.13533 11.0008 7.79467 11.4114 7.552C11.8314 7.30933 12.3401 7.188 12.9374 7.188V8.504H12.6014C11.1734 8.504 10.4594 9.27867 10.4594 10.828V15H9.18542V7.328H10.4594V8.574ZM21.4081 10.87C21.4081 11.1127 21.3941 11.3693 21.3661 11.64H15.2341C15.2807 12.396 15.5374 12.9887 16.0041 13.418C16.4801 13.838 17.0541 14.048 17.7261 14.048C18.2767 14.048 18.7341 13.922 19.0981 13.67C19.4714 13.4087 19.7327 13.0633 19.8821 12.634H21.2541C21.0487 13.3713 20.6381 13.9733 20.0221 14.44C19.4061 14.8973 18.6407 15.126 17.7261 15.126C16.9981 15.126 16.3447 14.9627 15.7661 14.636C15.1967 14.3093 14.7487 13.8473 14.4221 13.25C14.0954 12.6433 13.9321 11.9433 13.9321 11.15C13.9321 10.3567 14.0907 9.66133 14.4081 9.064C14.7254 8.46667 15.1687 8.00933 15.7381 7.692C16.3167 7.36533 16.9794 7.202 17.7261 7.202C18.4541 7.202 19.0981 7.36067 19.6581 7.678C20.2181 7.99533 20.6474 8.434 20.9461 8.994C21.2541 9.54467 21.4081 10.17 21.4081 10.87ZM20.0921 10.604C20.0921 10.1187 19.9847 9.70333 19.7701 9.358C19.5554 9.00333 19.2614 8.73733 18.8881 8.56C18.5241 8.37333 18.1181 8.28 17.6701 8.28C17.0261 8.28 16.4754 8.48533 16.0181 8.896C15.5701 9.30667 15.3134 9.876 15.2481 10.604H20.0921ZM25.9457 13.824L28.3257 7.328H29.6837L26.6737 15H25.1897L22.1797 7.328H23.5517L25.9457 13.824ZM31.5954 6.082C31.3527 6.082 31.1474 5.998 30.9794 5.83C30.8114 5.662 30.7274 5.45667 30.7274 5.214C30.7274 4.97133 30.8114 4.766 30.9794 4.598C31.1474 4.43 31.3527 4.346 31.5954 4.346C31.8287 4.346 32.0247 4.43 32.1834 4.598C32.3514 4.766 32.4354 4.97133 32.4354 5.214C32.4354 5.45667 32.3514 5.662 32.1834 5.83C32.0247 5.998 31.8287 6.082 31.5954 6.082ZM32.2114 7.328V15H30.9374V7.328H32.2114ZM37.7287 15.126C37.01 15.126 36.3567 14.9627 35.7687 14.636C35.19 14.3093 34.7327 13.8473 34.3967 13.25C34.07 12.6433 33.9067 11.9433 33.9067 11.15C33.9067 10.366 34.0747 9.67533 34.4107 9.078C34.756 8.47133 35.2227 8.00933 35.8107 7.692C36.3987 7.36533 37.0567 7.202 37.7847 7.202C38.5127 7.202 39.1707 7.36533 39.7587 7.692C40.3467 8.00933 40.8087 8.46667 41.1447 9.064C41.49 9.66133 41.6627 10.3567 41.6627 11.15C41.6627 11.9433 41.4854 12.6433 41.1307 13.25C40.7854 13.8473 40.314 14.3093 39.7167 14.636C39.1194 14.9627 38.4567 15.126 37.7287 15.126ZM37.7287 14.006C38.186 14.006 38.6154 13.8987 39.0167 13.684C39.418 13.4693 39.74 13.1473 39.9827 12.718C40.2347 12.2887 40.3607 11.766 40.3607 11.15C40.3607 10.534 40.2394 10.0113 39.9967 9.582C39.754 9.15267 39.4367 8.83533 39.0447 8.63C38.6527 8.41533 38.228 8.308 37.7707 8.308C37.304 8.308 36.8747 8.41533 36.4827 8.63C36.1 8.83533 35.792 9.15267 35.5587 9.582C35.3254 10.0113 35.2087 10.534 35.2087 11.15C35.2087 11.7753 35.3207 12.3027 35.5447 12.732C35.778 13.1613 36.086 13.4833 36.4687 13.698C36.8514 13.9033 37.2714 14.006 37.7287 14.006ZM50.1418 7.328V15H48.8678V13.866C48.6251 14.258 48.2844 14.566 47.8458 14.79C47.4164 15.0047 46.9404 15.112 46.4178 15.112C45.8204 15.112 45.2838 14.9907 44.8078 14.748C44.3318 14.496 43.9538 14.1227 43.6738 13.628C43.4031 13.1333 43.2678 12.5313 43.2678 11.822V7.328H44.5278V11.654C44.5278 12.41 44.7191 12.9933 45.1018 13.404C45.4844 13.8053 46.0071 14.006 46.6698 14.006C47.3511 14.006 47.8878 13.796 48.2798 13.376C48.6718 12.956 48.8678 12.3447 48.8678 11.542V7.328H50.1418ZM55.0088 15.126C54.4208 15.126 53.8935 15.028 53.4268 14.832C52.9602 14.6267 52.5915 14.3467 52.3208 13.992C52.0502 13.628 51.9008 13.2127 51.8728 12.746H53.1888C53.2262 13.1287 53.4035 13.4413 53.7208 13.684C54.0475 13.9267 54.4722 14.048 54.9948 14.048C55.4802 14.048 55.8628 13.9407 56.1428 13.726C56.4228 13.5113 56.5628 13.2407 56.5628 12.914C56.5628 12.578 56.4135 12.3307 56.1148 12.172C55.8162 12.004 55.3542 11.8407 54.7288 11.682C54.1595 11.5327 53.6928 11.3833 53.3288 11.234C52.9742 11.0753 52.6662 10.8467 52.4048 10.548C52.1528 10.24 52.0268 9.83867 52.0268 9.344C52.0268 8.952 52.1435 8.59267 52.3768 8.266C52.6102 7.93933 52.9415 7.68267 53.3708 7.496C53.8002 7.3 54.2902 7.202 54.8408 7.202C55.6902 7.202 56.3762 7.41667 56.8988 7.846C57.4215 8.27533 57.7015 8.86333 57.7388 9.61H56.4648C56.4368 9.20867 56.2735 8.88667 55.9748 8.644C55.6855 8.40133 55.2935 8.28 54.7988 8.28C54.3415 8.28 53.9775 8.378 53.7068 8.574C53.4362 8.77 53.3008 9.02667 53.3008 9.344C53.3008 9.596 53.3802 9.806 53.5388 9.974C53.7068 10.1327 53.9122 10.2633 54.1548 10.366C54.4068 10.4593 54.7522 10.5667 55.1908 10.688C55.7415 10.8373 56.1895 10.9867 56.5348 11.136C56.8802 11.276 57.1742 11.4907 57.4168 11.78C57.6688 12.0693 57.7995 12.4473 57.8088 12.914C57.8088 13.334 57.6922 13.712 57.4588 14.048C57.2255 14.384 56.8942 14.65 56.4648 14.846C56.0448 15.0327 55.5595 15.126 55.0088 15.126Z" fill="#DFF2EF"/>
<rect x="69" y="9" width="170" height="2" fill="#DFF2EF"/>
</g>
</svg>
