<?xml version="1.0"?><svg version="1.2" baseProfile="tiny-ps" viewBox="0 0 300 300" xmlns="http://www.w3.org/2000/svg" xmlns:xlink="http://www.w3.org/1999/xlink"><title>BIMI</title><g><g fill="#0f0e10" transform="matrix(.1 0 0 -.1 0 300)"><path d="m976 2322-6-10 541-753c297-415 548-762 557-772l16-17 9 9 10 10-282 391c-154 215-281 395-281 400 0 6 75 116 168 245l167 235 3-365 2-365h30v789l-9 5-8 5-20-22c-11-12-93-125-183-252-89-126-166-234-170-238l-7-8-257 358c-142 197-261 359-266 361-4 2-11-1-14-6zm144-678v-316l13 4 12 5 5 275 5 275 199-279 199-278h13c8 0 14 4 14 9 0 6-75 115-167 243-232 325-272 378-283 378h-10v-316zm-220-554v-70h30l1 43v42l16-32c9-18 20-33 25-33 4 0 15 15 25 33l18 32 3-42 3-43h29v140h-36l-21-42-20-43-22 43-21 42h-30v-70zm220 0v-70h100v19l-37 3-38 3v30l33 3 32 3v18l-32 3-33 3v30l38 3 37 3-5 10-6 9h-89v-70zm150 60v-10h70v-9c0-4-16-28-35-52s-35-47-35-51v-8h124l-9 9c-6 5-25 11-44 13l-34 3 37 43c20 24 36 50 36 58v14h-110v-10zm180-61v-70l53 3 52 3 1 55 1 55-10 13-9 12h-88v-71zm75 31v-15l-22-3-23-3v42l23-3 22-3v-15zm8-54c7-19-1-26-30-26h-23v40h48l5-14zm105 27-25-68 10-4c6-2 16 4 22 13l12 16h44l5-15c4-8 13-15 21-15h14l-5 18c-3 9-14 40-25 67l-19 50-14 3-15 3-25-68zm52-10v-13h-15c-16 0-19 9-9 35l7 17 8-14c5-7 9-19 9-25zM902 869l-2-57 18-22 18-22h56l16 15 16 16 2 63 2 63-6-56-7-56-14-16-13-17h-22c-11 0-28 5-36 10l-15 9-6 63-6 63-1-56zm208-24v-75h80l20 20 20 20v70l-20 20-20 20h-80v-75zm92 48 18-16v-60l-17-19-16-18h-67v130h63l19-17zm108-48v-75h80l20 20 20 20v70l-20 20-20 20h-80v-75zm94 43c9-12 16-32 16-43s-7-31-16-43l-15-22h-69v130h69l15-22zm96-43v-75h20v150h-20v-75zm102-2 1-78 6 65 6 65 49-63c27-34 53-62 57-62h9l-2 78-2 77-3-62-4-63h-8c-4 0-29 27-55 60s-49 60-52 60c-2 0-3-35-2-77z"/></g></g></svg>