<svg width="87" height="69" viewBox="0 0 87 69" fill="none" xmlns="http://www.w3.org/2000/svg">
<circle opacity="0.1" cx="30" cy="39" r="30" fill="white"/>
<path d="M65.5049 47.3089C68.0861 47.0406 70.0461 44.7918 69.9586 42.0939C69.915 40.7972 69.3715 39.5675 68.4419 38.6624C67.5123 37.7572 66.2686 37.2467 64.9711 37.2377H64.7903C62.0282 37.3252 59.8903 39.6643 59.9778 42.4527C60.0711 43.8031 60.6049 44.9697 61.407 45.7777C58.3766 51.8064 53.7449 56.2106 46.7945 59.8972C42.0753 62.4172 37.1753 63.3156 32.2782 62.6856C28.2678 62.146 25.1499 60.3464 23.1899 57.3802C20.3403 52.976 20.0749 48.2072 22.4782 43.4414C24.1699 40.026 26.8445 37.506 28.5361 36.2489C28.0773 34.7389 27.6909 33.2079 27.3782 31.661C14.4603 41.1052 15.7991 53.8743 19.7132 59.9002C22.6532 64.3977 28.6207 67.186 35.2153 67.186C37.0156 67.1982 38.8105 66.9865 40.5586 66.556C51.9628 64.3102 60.602 57.4735 65.502 47.3118L65.5049 47.3089ZM81.182 36.1585C74.4124 28.1552 64.4345 23.7481 53.0332 23.7481H51.607C51.2008 22.9385 50.5778 22.2575 49.8074 21.7812C49.037 21.3048 48.1494 21.0518 47.2436 21.0502H47.0628C44.3036 21.1406 42.1628 23.4797 42.2532 26.2681C42.3407 28.966 44.5691 31.1214 47.2407 31.1214H47.4216C48.3624 31.0727 49.2706 30.7602 50.0422 30.2197C50.8138 29.6792 51.4177 28.9324 51.7849 28.0647H53.3891C60.1586 28.0647 66.5724 30.0422 72.362 33.9097C76.8157 36.8789 80.0241 40.7435 81.8032 45.4218C83.3199 49.196 83.2324 52.8827 81.6282 56.0327C79.1316 60.7985 74.9461 63.406 69.422 63.406C65.8607 63.406 62.4745 62.3268 60.6924 61.516C59.4101 62.6598 58.0727 63.7403 56.6849 64.7535C60.5145 66.5531 64.4345 67.5418 68.1766 67.5418C76.7282 67.5418 83.0516 62.776 85.4578 58.0102C88.0391 52.7952 87.8611 43.8031 81.182 36.1585ZM35.9299 48.8372C36.0174 51.5352 38.2457 53.6935 40.9174 53.6935H41.0953C43.8574 53.606 45.9953 51.2668 45.9078 48.4785C45.8642 47.1817 45.3207 45.9521 44.391 45.047C43.4614 44.1418 42.2178 43.6313 40.9203 43.6222H40.7395C40.5276 43.6082 40.3151 43.638 40.1153 43.7097C36.4636 37.5964 34.9499 30.9435 35.4836 23.7481C35.8395 18.3522 37.6216 13.6768 40.7395 9.80933C43.3236 6.48433 48.3111 4.86558 51.6974 4.77516C61.1386 4.59433 65.1461 16.4652 65.4145 21.231C66.5724 21.4993 68.5324 22.1293 69.8682 22.5785C68.7978 8.01266 59.8932 0.458496 51.3386 0.458496C43.3236 0.458496 35.9299 6.3035 32.9899 14.9368C28.892 26.446 31.5636 37.506 36.5541 46.2297C36.1078 46.8597 35.8395 47.8485 35.9299 48.8372Z" fill="white"/>
</svg>
