<svg width="32" height="40" viewBox="0 0 32 40" fill="none" xmlns="http://www.w3.org/2000/svg">
<path fill-rule="evenodd" clip-rule="evenodd" d="M20.9041 34.6601L4.97823 34.6685L4.97656 31.2951L20.9016 31.2868L20.9041 34.6601ZM31.6658 15.5592L28.9408 0L25.5908 0.576669L28.315 16.1351L31.6658 15.5601V15.5592ZM21.2875 26.9626L5.42906 25.5134L5.11656 28.8726L20.975 30.3201L21.2875 26.9626ZM22.3333 22.5609L6.95407 18.4609L6.07073 21.7192L21.4508 25.8184L22.3333 22.5609ZM24.3416 18.7026L10.6232 10.68L8.89491 13.585L22.6133 21.6076L24.3408 18.7034L24.3416 18.7026ZM27.705 16.3409L18.7316 3.29334L15.9216 5.19335L24.895 18.2401L27.705 16.3409Z" fill="white"/>
<path fill-rule="evenodd" clip-rule="evenodd" d="M23.6101 23.5649V37.3533H2.72084V23.5649H0V40H26.3168V23.5649H23.6101Z" fill="white"/>
</svg>
