<svg width="56" height="40" viewBox="0 0 56 40" fill="none" xmlns="http://www.w3.org/2000/svg">
<path d="M18.8643 11.6515H23.8578C24.1352 11.6515 24.4127 11.3741 24.4127 11.0967V6.93541C24.4127 6.658 24.1352 6.38058 23.8578 6.38058H18.8643C18.5869 6.38058 18.3095 6.658 18.3095 6.93541V11.3741C18.3095 11.3741 18.5869 11.6515 18.8643 11.6515ZM25.5223 18.0321H30.5158C30.7932 18.0321 31.0707 17.7547 31.0707 17.4772V13.0386C31.0707 12.7612 30.7932 12.4837 30.5158 12.4837H25.5223C25.2449 12.4837 24.9675 12.7612 24.9675 13.0386V17.4772C24.9675 17.7547 25.2449 18.0321 25.5223 18.0321ZM25.5223 11.6515H30.5158C30.7932 11.6515 31.0707 11.3741 31.0707 11.0967V6.93541L30.5158 6.38058H25.5223C25.2449 6.38058 24.9675 6.658 24.9675 6.93541V11.3741C24.9675 11.3741 25.2449 11.6515 25.5223 11.6515ZM32.4577 18.0321H37.4512C37.7287 18.0321 38.0061 17.7547 38.0061 17.4772V13.0386C38.0061 12.7612 37.7287 12.4837 37.4512 12.4837H32.4577C32.1803 12.4837 31.9029 12.7612 31.9029 13.0386V17.4772C31.9029 17.7547 32.1803 18.0321 32.4577 18.0321ZM25.5223 5.27092H30.5158C30.7932 5.27092 31.0707 4.9935 31.0707 4.71608V0.554834C31.0707 0.277417 30.7932 0 30.5158 0H25.5223C25.2449 0 24.9675 0.277417 24.9675 0.554834V4.9935C24.9675 5.27092 25.2449 5.27092 25.5223 5.27092ZM4.9935 18.0321H9.987C10.2644 18.0321 10.5418 17.7547 10.5418 17.4772V13.0386C10.5418 12.7612 10.2644 12.4837 9.987 12.4837H4.9935C4.71608 12.4837 4.43866 12.7612 4.43866 13.0386V17.4772L4.9935 18.0321ZM54.9285 15.2579C53.5414 14.4257 51.8769 13.8708 50.4898 14.1482C49.6576 14.1482 48.8253 14.1482 48.2705 14.4257C47.7156 11.9289 46.3286 9.70958 44.3867 8.59991L43.5544 8.04508L42.9996 8.87733C42.1673 9.43216 41.6125 10.5418 41.3351 11.9289C40.7802 14.1482 41.0577 16.3676 42.1673 18.0321C40.7802 18.5869 39.3932 18.8643 38.0061 19.1417H1.6645C0.832249 19.1417 0 19.974 0 20.8062C0 24.1352 0.554833 27.1868 1.6645 30.2384C2.77417 33.29 4.71608 35.7867 7.21283 37.4512C11.0967 39.3932 15.2579 40.2254 19.4192 39.948C21.6385 39.948 23.8578 39.6706 26.0772 39.3932C29.1287 38.8383 32.1803 37.7287 34.9545 36.0642C37.1738 34.6771 39.1157 33.0126 41.0576 31.0707C43.5544 28.0191 45.4963 24.6901 46.8834 20.8062H47.4382C49.6576 20.8062 51.8769 19.974 53.5414 18.5869C54.3736 18.0321 54.9285 17.1998 55.2059 16.0902L55.4833 15.5353L54.9285 15.2579ZM11.9289 18.0321H16.645C16.9224 18.0321 17.1998 17.7547 17.1998 17.4772V13.0386C17.1998 12.7612 16.9224 12.4837 16.645 12.4837H11.9289C11.6515 12.4837 11.3741 12.7612 11.3741 13.0386V17.4772C11.3741 17.7547 11.6515 18.0321 11.9289 18.0321ZM11.9289 11.6515H16.645C16.9224 11.6515 17.1998 11.3741 17.1998 11.0967V6.93541C17.1998 6.658 16.9224 6.38058 16.645 6.38058H11.9289C11.6515 6.38058 11.3741 6.658 11.3741 6.93541V11.3741C11.3741 11.3741 11.6515 11.6515 11.9289 11.6515ZM18.8643 18.0321H23.8578C24.1352 18.0321 24.4127 17.7547 24.4127 17.4772V13.0386C24.4127 12.7612 24.1352 12.4837 23.8578 12.4837H18.8643C18.5869 12.4837 18.3095 12.7612 18.3095 13.0386V17.4772C18.3095 17.7547 18.5869 18.0321 18.8643 18.0321Z" fill="white"/>
</svg>
