<svg width="40" height="40" viewBox="0 0 40 40" fill="none" xmlns="http://www.w3.org/2000/svg">
<path d="M37.6607 33.4911C35.5268 35.75 32.9911 37.4018 30.0536 38.4375C27.1161 39.4821 24.0179 40 20.7589 40C17.6429 40 14.8036 39.5089 12.25 38.5179C9.69643 37.5357 7.50893 36.1607 5.70536 34.4018C3.89286 32.6429 2.49107 30.5357 1.49107 28.0804C0.491072 25.625 0 22.9464 0 20.0446C0 17.1786 0.544643 14.5268 1.63393 12.0893C2.72321 9.65179 4.20536 7.53571 6.08929 5.74107C7.97321 3.94643 10.1696 2.54464 12.6964 1.51786C15.2054 0.508929 17.9018 0 20.7589 0C23.2232 0 25.6161 0.357143 27.9286 1.07143C30.25 1.78571 32.3036 2.86607 34.0982 4.29464C35.8929 5.73214 37.3214 7.51786 38.3929 9.66964C39.4643 11.8214 40 14.3482 40 17.25C40 19.4018 39.7054 21.3036 39.1071 22.9464C38.5089 24.5982 37.7143 25.9732 36.7143 27.0893C35.7143 28.2054 34.5804 29.0357 33.2946 29.5893C32.0089 30.1429 30.6607 30.4196 29.25 30.4196C27.8036 30.4196 26.6429 30.0804 25.7679 29.4018C24.9018 28.7232 24.4643 27.8571 24.4643 26.8214H24.1964C23.6518 27.6786 22.8214 28.5 21.6964 29.2679C20.5714 30.0357 19.1964 30.4286 17.5625 30.4286C15.0982 30.4286 13.1964 29.625 11.8571 28.0089C10.5179 26.3929 9.84822 24.3036 9.84822 21.7143C9.84822 20.2054 10.0982 18.7232 10.6071 17.25C11.1161 15.7768 11.8393 14.4732 12.7768 13.3214C13.7143 12.1786 14.8393 11.25 16.1429 10.5536C17.4464 9.85714 18.8929 9.50893 20.4911 9.50893C21.8661 9.50893 23.0268 9.79464 23.9732 10.3661C24.9107 10.9375 25.5268 11.6429 25.8214 12.4643H25.875L26.3125 10.3125H31.1518L29.0179 20.4821C28.9464 20.9821 28.8482 21.5357 28.7232 22.1518C28.5982 22.7589 28.5357 23.3304 28.5357 23.875C28.5357 24.4821 28.6518 24.9911 28.8929 25.4107C29.125 25.8214 29.5893 26.0268 30.2768 26.0268C31.6875 26.0268 32.8571 25.2768 33.7857 23.7679C34.7054 22.2589 35.1696 20.2411 35.1696 17.6964C35.1696 15.5446 34.8036 13.6339 34.0804 11.9732C33.3571 10.3036 32.3482 8.91071 31.0625 7.77679C29.7768 6.65179 28.2411 5.79464 26.4732 5.22321C24.6964 4.65179 22.7589 4.36607 20.6607 4.36607C18.375 4.36607 16.2857 4.76786 14.3839 5.57143C12.4821 6.375 10.8571 7.49107 9.51786 8.90179C8.17857 10.3214 7.13393 11.9821 6.39286 13.9018C5.64286 15.8125 5.26786 17.8839 5.26786 20.1071C5.26786 22.4732 5.66071 24.6071 6.4375 26.5089C7.21429 28.4107 8.3125 30.0268 9.72321 31.375C11.1339 32.7232 12.8214 33.75 14.7768 34.4643C16.7321 35.1786 18.8929 35.5357 21.2411 35.5357C24.1786 35.5357 26.7054 35.0714 28.8214 34.1339C30.9375 33.2054 32.8839 31.9107 34.6607 30.2589L37.6607 33.4911ZM20.6518 13.9286C19.7857 13.9286 19.0179 14.1786 18.3661 14.6786C17.7143 15.1786 17.1607 15.8125 16.7054 16.5893C16.25 17.3571 15.9107 18.2143 15.6696 19.1429C15.4375 20.0714 15.3125 20.9732 15.3125 21.8304C15.3125 22.2589 15.3571 22.7143 15.4464 23.2054C15.5357 23.6875 15.7143 24.1339 15.9911 24.5536C16.2589 24.9643 16.6161 25.3036 17.0536 25.5714C17.4911 25.8393 18.0714 25.9732 18.7946 25.9732C19.7768 25.9732 20.6071 25.7321 21.2946 25.25C21.9821 24.7679 22.5446 24.1607 22.9821 23.4196C23.4196 22.6875 23.7321 21.8839 23.9375 21.0268C24.1339 20.1696 24.2321 19.375 24.2321 18.6607C24.2321 18.0893 24.1786 17.5268 24.0714 16.9643C23.9643 16.4107 23.7768 15.9107 23.5 15.4554C23.2321 15.0089 22.8571 14.6429 22.3839 14.3571C21.9196 14.0714 21.3393 13.9286 20.6518 13.9286Z" fill="white"/>
</svg>
