<svg width="42" height="40" viewBox="0 0 42 40" fill="none" xmlns="http://www.w3.org/2000/svg">
<path d="M20.5059 0C15.6367 0.000201911 10.9265 1.73298 7.21804 4.88828C3.50956 8.04358 1.04483 12.4155 0.264855 17.2218C-0.515122 22.0281 0.440558 26.9551 2.96089 31.1212C5.48123 35.2873 9.40175 38.4207 14.021 39.9607C15.0463 40.1402 15.4307 39.5251 15.4307 38.9867C15.4307 38.4997 15.4051 36.8849 15.4051 35.1675C10.253 36.1159 8.9201 33.9116 8.50998 32.7581C8.05491 31.6363 7.33351 30.6422 6.40813 29.8616C5.69043 29.4772 4.66514 28.5288 6.38248 28.5032C7.03823 28.5743 7.66716 28.8025 8.21599 29.1684C8.76482 29.5342 9.21736 30.027 9.53527 30.605C9.81573 31.1088 10.1929 31.5523 10.645 31.9101C11.0972 32.268 11.6155 32.5331 12.1703 32.6902C12.7251 32.8474 13.3055 32.8935 13.8782 32.826C14.4508 32.7584 15.0045 32.5786 15.5076 32.2967C15.5963 31.2542 16.0609 30.2795 16.8148 29.5541C12.2523 29.0415 7.48469 27.2728 7.48469 19.4293C7.45587 17.3914 8.2079 15.4196 9.58654 13.9184C8.95964 12.1471 9.03299 10.2033 9.7916 8.48436C9.7916 8.48436 11.5089 7.94606 15.4307 10.5862C18.7861 9.66339 22.3283 9.66339 25.6836 10.5862C29.6053 7.92044 31.3227 8.48436 31.3227 8.48436C32.0814 10.2033 32.1548 12.1472 31.5278 13.9184C32.9106 15.417 33.6633 17.3905 33.6296 19.4293C33.6296 27.2984 28.8364 29.0415 24.2739 29.5541C24.7632 30.0501 25.1401 30.6456 25.379 31.3002C25.6178 31.9548 25.713 32.6531 25.658 33.3477C25.658 36.0904 25.6323 38.2947 25.6323 38.9868C25.6323 39.5251 26.0168 40.1659 27.0421 39.9608C31.6532 38.4083 35.5625 35.2675 38.0721 31.0993C40.5817 26.931 41.5283 22.0065 40.7429 17.2049C39.9575 12.4033 37.4913 8.037 33.7844 4.88554C30.0775 1.73408 25.3713 0.00253228 20.5059 0Z" fill="white"/>
</svg>
