<svg width="42" height="40" viewBox="0 0 42 40" fill="none" xmlns="http://www.w3.org/2000/svg">
<path d="M0 4.64646C0 3.29964 0.466746 2.18853 1.4002 1.31313C2.33365 0.437697 3.54718 0 5.04071 0C6.5076 0 7.69441 0.43095 8.60121 1.29293C9.53467 2.18182 10.0014 3.34004 10.0014 4.76768C10.0014 6.06061 9.54803 7.13802 8.64122 8C7.70777 8.88889 6.48091 9.33333 4.9607 9.33333H4.92069C3.45381 9.33333 2.267 8.88889 1.36019 8C0.453384 7.11111 0 5.99325 0 4.64646ZM0.520073 40V13.0101H9.40133V40H0.520073ZM14.322 40H23.2033V24.9293C23.2033 23.9865 23.31 23.2592 23.5233 22.7475C23.8967 21.8316 24.4635 21.0572 25.2236 20.4242C25.9837 19.7912 26.9371 19.4747 28.084 19.4747C31.0711 19.4747 32.5646 21.5084 32.5646 25.5758V40H41.4458V24.5253C41.4458 20.5387 40.5124 17.5152 38.6455 15.4545C36.7785 13.3939 34.3115 12.3636 31.2444 12.3636C27.8039 12.3636 25.1235 13.8586 23.2033 16.8485V16.9293H23.1633L23.2033 16.8485V13.0101H14.322C14.3753 13.872 14.402 16.5522 14.402 21.0505C14.402 25.5488 14.3753 31.8653 14.322 40Z" fill="white"/>
</svg>
