<svg width="220" height="143" viewBox="0 0 220 143" fill="none" xmlns="http://www.w3.org/2000/svg">
<path d="M55.1543 90.1019C55.1516 90.2845 55.1099 90.4645 55.032 90.6296C54.954 90.7948 54.8416 90.9414 54.7024 91.0595C54.4304 91.314 54.0742 91.4596 53.7018 91.4684C53.4901 91.4786 53.2795 91.4333 53.0908 91.3371C52.9021 91.2408 52.7418 91.0969 52.6258 90.9196L15.9145 39.4248V89.6393C15.9234 89.8288 15.8882 90.0178 15.8116 90.1915C15.7351 90.3651 15.6193 90.5186 15.4734 90.6399C15.2064 90.8766 14.8618 91.0068 14.505 91.0057C14.1376 91.0033 13.7859 90.8565 13.5259 90.5969C13.3881 90.4782 13.2773 90.3312 13.2012 90.166C13.1251 90.0008 13.0854 89.8212 13.0847 89.6393V35.2179C13.0849 34.7971 13.2083 34.3856 13.4398 34.0343C13.5516 33.853 13.7111 33.706 13.9009 33.6092C14.0906 33.5124 14.3033 33.4697 14.5158 33.4856C14.7374 33.4753 14.9573 33.5298 15.1484 33.6426C15.3395 33.7553 15.4936 33.9214 15.5917 34.1204C16.0221 34.7337 16.9151 35.971 18.2923 37.8217C19.6695 39.6723 21.305 41.9425 23.2202 44.6216C25.1354 47.3007 27.2657 50.2596 29.6113 53.4767C31.9569 56.6938 34.3132 59.9324 36.691 63.3001C39.0689 66.6678 41.3606 69.8418 43.5771 72.9836C45.7935 76.1254 47.784 78.9228 49.5163 81.3868C51.2486 83.8507 52.6366 85.8735 53.6695 87.4551C54.2573 88.2819 54.7551 89.1693 55.1543 90.1019ZM85.1947 19.7027C85.2175 19.8866 85.1877 20.0731 85.1087 20.2407V90.1019C85.107 90.2806 85.07 90.4572 84.9998 90.6215C84.9296 90.7859 84.8277 90.9347 84.6998 91.0595C84.5734 91.1882 84.4227 91.2906 84.2565 91.3608C84.0903 91.431 83.9118 91.4675 83.7314 91.4684C83.5601 91.4704 83.3903 91.4349 83.2342 91.3642C83.078 91.2936 82.9393 91.1896 82.8276 91.0595C82.5898 90.7975 82.4593 90.4557 82.4618 90.1019V24.1679L50.9581 68.2817C51.1948 68.7121 100.893 137.766 101.592 138.81C102.065 139.377 102.43 140.026 102.668 140.725C102.676 140.928 102.639 141.13 102.559 141.316C102.479 141.502 102.358 141.668 102.205 141.801C101.939 142.066 101.58 142.217 101.205 142.221C100.993 142.231 100.783 142.186 100.594 142.089C100.405 141.993 100.245 141.849 100.129 141.672L0.27022 2.28312C0.0824728 2.01612 -0.0120639 1.69468 0.00123322 1.36855C-0.00131019 1.01861 0.120735 0.679168 0.345536 0.410961C0.468204 0.274468 0.619698 0.166966 0.789042 0.0962512C0.958386 0.0255361 1.14134 -0.0066272 1.32464 0.00209598C1.55543 -0.0114724 1.78531 0.0410477 1.98731 0.153483C2.18931 0.265919 2.35507 0.433621 2.46515 0.636917L49.2689 65.9469L82.6878 19.0141C82.7863 18.838 82.9324 18.6932 83.1093 18.5961C83.2863 18.4991 83.4869 18.4538 83.6884 18.4654C84.0776 18.4653 84.4559 18.5939 84.7644 18.8312C84.8994 18.9325 85.0088 19.0642 85.0836 19.2156C85.1583 19.367 85.1964 19.5339 85.1947 19.7027Z" fill="white"/>
<path d="M102.313 67.3457C102.492 67.3471 102.669 67.3131 102.835 67.2456C103 67.1781 103.151 67.0785 103.278 66.9524C103.405 66.8264 103.506 66.6765 103.575 66.5113C103.644 66.3461 103.679 66.1689 103.679 65.99C103.679 65.6276 103.535 65.28 103.279 65.0238C103.023 64.7675 102.675 64.6235 102.313 64.6235H91.2734V91.5222H102.313C102.675 91.5222 103.023 91.3783 103.279 91.122C103.535 90.8657 103.679 90.5182 103.679 90.1558C103.679 89.9768 103.644 89.7996 103.575 89.6345C103.506 89.4693 103.405 89.3194 103.278 89.1933C103.151 89.0673 103 88.9677 102.835 88.9002C102.669 88.8327 102.492 88.7986 102.313 88.8001H94.2646V79.2457H100.817C100.993 79.2471 101.168 79.2136 101.331 79.1472C101.494 79.0808 101.642 78.9827 101.767 78.8587C101.892 78.7347 101.992 78.5871 102.059 78.4245C102.127 78.262 102.162 78.0876 102.162 77.9115C102.162 77.5548 102.02 77.2127 101.768 76.9605C101.516 76.7082 101.174 76.5665 100.817 76.5665H94.2646V67.3995L102.313 67.3457Z" fill="white"/>
<path d="M130.556 77.1692C132.891 76.4375 133.698 74.673 133.698 71.7894V70.5306C133.698 66.5818 132.052 64.5806 127.866 64.5806H121.852V91.4792H128.071C132.245 91.4792 134.203 89.209 134.203 85.185V82.9255C134.16 79.9666 133.16 77.89 130.556 77.1692ZM124.843 67.3458H127.791C129.943 67.3458 130.75 68.497 130.75 70.8749V72.4457C130.75 75.2432 129.523 76.0179 127.145 76.0179H124.843V67.3458ZM131.212 85.0989C131.212 87.5951 130.212 88.7463 127.984 88.7463H124.843V78.74H127.446C130.018 78.74 131.212 79.7299 131.212 82.721V85.0989Z" fill="white"/>
<path d="M141.262 64.6235L136.119 91.5222C136.119 91.704 136.155 91.884 136.225 92.0518C136.295 92.2195 136.397 92.3719 136.526 92.4999C136.655 92.6279 136.808 92.7291 136.977 92.7977C137.145 92.8663 137.325 92.9008 137.507 92.8994C137.872 92.8994 138.223 92.7543 138.481 92.4961C138.739 92.2378 138.884 91.8875 138.884 91.5222L139.96 86.1425H146.749L147.825 91.5222C147.825 91.9189 147.983 92.2993 148.263 92.5797C148.544 92.8602 148.924 93.0178 149.321 93.0178C149.517 93.0178 149.712 92.9791 149.893 92.9039C150.075 92.8288 150.24 92.7186 150.379 92.5797C150.517 92.4409 150.628 92.276 150.703 92.0945C150.778 91.9131 150.817 91.7186 150.817 91.5222L145.684 64.6235H141.262ZM140.305 83.4849L143.253 68.002L146.287 83.4849H140.305Z" fill="white"/>
<path d="M179.351 64.6235H173.455V91.5222H179.351C183.494 91.5222 185.29 88.8001 185.29 84.8513V71.2944C185.29 67.3457 183.494 64.6235 179.351 64.6235ZM183.537 84.8729C183.537 87.821 182.299 89.8545 179.319 89.8545H175.209V66.1837H179.319C182.267 66.1837 183.537 68.2172 183.537 71.1653V84.8729Z" fill="white"/>
<path d="M194.124 64.6235H188.217V91.5222H194.124C198.266 91.5222 200.063 88.8001 200.063 84.8513V71.2944C200.063 67.3457 198.266 64.6235 194.124 64.6235ZM198.298 84.8729C198.298 87.821 197.072 89.8545 194.081 89.8545H189.981V66.1837H194.081C197.04 66.1837 198.298 68.2172 198.298 71.1653V84.8729Z" fill="white"/>
<path d="M119.087 88.7463H109.92L119.163 67.3134V64.6235H107.327C106.965 64.6235 106.617 64.7675 106.361 65.0238C106.105 65.28 105.961 65.6276 105.961 65.99C105.961 66.1689 105.996 66.3461 106.065 66.5113C106.134 66.6765 106.235 66.8264 106.362 66.9524C106.489 67.0785 106.64 67.1781 106.805 67.2456C106.971 67.3131 107.148 67.3471 107.327 67.3457H116.107L106.908 88.7786V91.4684H119.087C119.266 91.4684 119.444 91.433 119.609 91.3642C119.774 91.2954 119.924 91.1946 120.05 91.0676C120.176 90.9405 120.276 90.7898 120.343 90.6241C120.411 90.4583 120.445 90.2809 120.443 90.102C120.445 89.9235 120.411 89.7466 120.343 89.5815C120.275 89.4163 120.175 89.2663 120.049 89.1402C119.923 89.014 119.773 88.9142 119.608 88.8465C119.443 88.7789 119.266 88.7448 119.087 88.7463Z" fill="white"/>
<path d="M169.592 63.8058C169.484 63.8043 169.377 63.8244 169.276 63.8649C169.176 63.9054 169.084 63.9654 169.007 64.0414C168.93 64.1175 168.869 64.2081 168.827 64.3081C168.785 64.408 168.764 64.5152 168.764 64.6235V84.9589C168.764 87.8424 167.688 90.0696 164.74 90.0696C161.792 90.0696 160.716 87.8639 160.716 84.9589V64.6235C160.716 64.3895 160.623 64.1651 160.457 63.9996C160.292 63.8342 160.067 63.7412 159.833 63.7412C159.599 63.7412 159.375 63.8342 159.21 63.9996C159.044 64.1651 158.951 64.3895 158.951 64.6235V84.9589C158.951 88.8 160.597 91.7481 164.697 91.7481C168.796 91.7481 170.41 88.8 170.41 84.9589V64.6235C170.41 64.5161 170.389 64.4098 170.348 64.3106C170.307 64.2113 170.246 64.1212 170.171 64.0453C170.095 63.9693 170.004 63.9091 169.905 63.868C169.806 63.8269 169.7 63.8058 169.592 63.8058Z" fill="white"/>
<path d="M203.873 63.7412C203.639 63.7412 203.414 63.8342 203.249 63.9996C203.083 64.1651 202.99 64.3895 202.99 64.6235V91.5222C202.99 91.7562 203.083 91.9806 203.249 92.146C203.414 92.3115 203.639 92.4044 203.873 92.4044C204.107 92.4044 204.331 92.3115 204.496 92.146C204.662 91.9806 204.755 91.7562 204.755 91.5222V64.6235C204.755 64.3895 204.662 64.1651 204.496 63.9996C204.331 63.8342 204.107 63.7412 203.873 63.7412Z" fill="white"/>
<path d="M218.978 63.8167C218.765 63.8194 218.561 63.9054 218.41 64.0561C218.26 64.2068 218.174 64.4105 218.171 64.6236V87.2831L210.123 64.6236H207.82V91.5223C207.82 91.7363 207.905 91.9416 208.057 92.0929C208.208 92.2442 208.413 92.3293 208.627 92.3293C208.84 92.3265 209.044 92.2405 209.195 92.0898C209.346 91.9391 209.431 91.7354 209.434 91.5223V67.5932L217.827 91.5223H219.785V64.6236C219.782 64.4105 219.696 64.2068 219.545 64.0561C219.395 63.9054 219.191 63.8194 218.978 63.8167Z" fill="white"/>
</svg>
