<svg width="50" height="40" viewBox="0 0 50 40" fill="none" xmlns="http://www.w3.org/2000/svg">
<path d="M49.1364 4.79227C47.2897 5.59342 45.3367 6.12304 43.3383 6.36463C45.4466 5.10507 47.0266 3.12356 47.7851 0.787656C45.8038 1.96708 43.635 2.79806 41.3728 3.24447C39.8607 1.60473 37.8472 0.513221 35.648 0.141148C33.4487 -0.230924 31.1882 0.13748 29.2209 1.18858C27.2536 2.23969 25.6908 3.91403 24.7776 5.94903C23.8644 7.98402 23.6525 10.2646 24.1751 12.433C20.1691 12.2303 16.2505 11.1873 12.6739 9.37144C9.09727 7.55562 5.94266 5.00772 3.41498 1.89322C2.5284 3.44143 2.06255 5.19475 2.06373 6.97884C2.06058 8.63567 2.46718 10.2676 3.24731 11.7293C4.02744 13.1909 5.15691 14.437 6.53513 15.3566C4.93323 15.313 3.36556 14.8832 1.96545 14.1036V14.2264C1.97746 16.5479 2.79093 18.7939 4.26827 20.5846C5.7456 22.3753 7.79611 23.6008 10.073 24.0537C9.1965 24.3204 8.28654 24.4611 7.37045 24.4714C6.73632 24.464 6.10377 24.4065 5.4787 24.2994C6.12708 26.2963 7.38181 28.0415 9.0683 29.292C10.7548 30.5426 12.7892 31.2364 14.8883 31.2768C11.3436 34.0659 6.96725 35.5881 2.45682 35.6008C1.63559 35.6035 0.815014 35.5542 0 35.4534C4.60513 38.4267 9.97176 40.0052 15.4534 39.9985C19.2361 40.0377 22.9888 39.3229 26.4921 37.8956C29.9955 36.4684 33.1794 34.3573 35.8578 31.6858C38.5361 29.0143 40.6553 25.8359 42.0916 22.3362C43.5278 18.8365 44.2523 15.0857 44.2227 11.3028C44.2227 10.8852 44.2227 10.4429 44.2227 10.0007C46.1506 8.56302 47.8133 6.80053 49.1364 4.79227Z" fill="white"/>
</svg>
